# xmcd
#
# Track frame offsets:
#	150
#	18045
#	34725
#
# Disc length: 623 seconds
#
# Revision: 0
# Processed by: cddbd v1.4b41PL3 Copyright (c) Steve Scherf et al.
# Submitted via: EZCDDA 4.3.3.2
#
DISCID=15026d03
DTITLE=Daniel Hobbs - She's Worth Fighting For
DYEAR=1900
DGENRE=
TTITLE0=She's Worth Fighting For
TTITLE1=One Heart Beat Away
TTITLE2=If That's Not Country
EXTD=
EXTT0=
EXTT1=
EXTT2=
PLAYORDER=
